<?xml version="1.0" encoding="utf-8"?>
<!-- Generator: Adobe Illustrator 26.5.0, SVG Export Plug-In . SVG Version: 6.00 Build 0)  -->
<svg version="1.1" id="Camada_2" xmlns="http://www.w3.org/2000/svg" xmlns:xlink="http://www.w3.org/1999/xlink" x="0px" y="0px"
	 viewBox="0 0 1080 1080" style="enable-background:new 0 0 1080 1080;" xml:space="preserve">
<style type="text/css">
	.st0{fill:#0B1F50;}
</style>
<path class="st0" d="M93.6,540V395.7h60.9v-51.8h104.4v31h10.8v-88.6h92.2v59h25.2V163c0-12.8,10.4-23.2,23.2-23.2h280.5
	c12.8,0,23.2,10.4,23.2,23.2v150.7h72v118.8l11.5-0.2v-37.4h64.8v37.9h12V318l89.3-0.5v115.7h42.2v215.5
	c-16.3-2.8-40.7-7.4-69.8-15.1c-82.1-21.6-136.8-50.2-180.3-70.8c-73.9-35.1-133.3-63.3-208.8-81.4c-46.3-11.1-179.6-41.3-334.1,6.5
	C160.9,503.9,120.5,524.5,93.6,540z"/>
<path class="st0" d="M746.5,791.7v123.2c0,14-11.3,25.3-25.3,25.3H377.9c-14,0-25.3-11.3-25.3-25.3V719.7c0-11.9-9.7-21.6-21.6-21.6
	H123.5c-14.8,0-26.8-12-26.8-26.8v-28.6c7.7-4,15.7-7.8,24-11.2c26.2-10.7,111.1-40.4,269.4,11.2c83.5,27.2,85.3,43.8,211,95.7
	C661.6,763.4,712.5,780.8,746.5,791.7z"/>
</svg>
